<?xml version="1.0" standalone="no"?>
<!DOCTYPE svg PUBLIC "-//W3C//DTD SVG 20010904//EN"
 "http://www.w3.org/TR/2001/REC-SVG-20010904/DTD/svg10.dtd">
<svg version="1.0" xmlns="http://www.w3.org/2000/svg"
 width="1890.000000pt" height="1890.000000pt" viewBox="0 0 1890.000000 1890.000000"
 preserveAspectRatio="xMidYMid meet">
<metadata>
Created by potrace 1.11, written by Peter Selinger 2001-2013
</metadata>
<g transform="translate(0.000000,1890.000000) scale(0.100000,-0.100000)"
fill="#000000" stroke="none">
<path d="M9100 15912 c-74 -2 -117 -7 -122 -15 -4 -7 -51 -13 -135 -15 -78 -2
-157 -10 -203 -22 -41 -10 -117 -21 -168 -24 -51 -4 -121 -16 -155 -26 -34
-11 -81 -20 -104 -20 -24 0 -69 -9 -100 -19 -32 -11 -85 -23 -118 -27 -70 -9
-60 -6 -109 -28 -21 -9 -48 -16 -60 -15 -11 2 -46 -7 -77 -18 -31 -12 -74 -23
-95 -25 -22 -2 -47 -11 -58 -20 -10 -9 -40 -19 -67 -23 -26 -4 -65 -15 -86
-26 -20 -10 -46 -19 -58 -19 -11 0 -35 -9 -53 -20 -18 -11 -47 -22 -65 -24
-19 -2 -51 -13 -73 -25 -21 -12 -46 -21 -54 -21 -8 0 -32 -9 -53 -20 -20 -11
-43 -20 -50 -20 -7 0 -29 -9 -50 -20 -20 -11 -46 -21 -56 -23 -10 -2 -29 -10
-42 -18 -13 -9 -35 -19 -49 -24 -14 -4 -39 -15 -56 -25 -17 -9 -48 -23 -69
-30 -21 -7 -44 -17 -49 -21 -6 -5 -81 -45 -166 -88 -223 -113 -260 -134 -260
-143 0 -4 -8 -8 -19 -8 -10 0 -24 -7 -31 -16 -8 -8 -27 -22 -44 -29 -45 -21
-98 -53 -105 -63 -3 -5 -29 -21 -57 -36 -27 -15 -66 -40 -85 -56 -18 -17 -40
-30 -46 -30 -7 0 -22 -8 -32 -17 -10 -10 -35 -29 -55 -43 -20 -14 -53 -37 -73
-52 -19 -15 -39 -25 -44 -22 -5 3 -9 -2 -9 -10 0 -9 -4 -16 -9 -16 -4 0 -38
-22 -74 -50 -36 -27 -68 -50 -70 -50 -3 0 -25 -19 -50 -42 -26 -24 -65 -56
-87 -73 -55 -42 -82 -64 -184 -158 -49 -45 -94 -81 -100 -79 -6 2 -8 1 -4 -3
4 -4 -17 -29 -45 -55 -88 -82 -267 -262 -267 -269 0 -4 -15 -21 -32 -37 -39
-35 -125 -129 -188 -204 -25 -30 -53 -62 -62 -72 -10 -10 -18 -22 -18 -26 0
-5 -18 -29 -41 -53 -22 -24 -57 -66 -77 -94 -20 -27 -44 -58 -54 -68 -10 -10
-18 -23 -18 -29 0 -6 -10 -20 -23 -32 -20 -19 -36 -42 -108 -153 -12 -18 -25
-33 -30 -33 -5 0 -9 -5 -9 -11 0 -7 -20 -42 -44 -78 -103 -158 -140 -217 -142
-230 -2 -8 -7 -17 -11 -20 -12 -8 -103 -171 -161 -286 -8 -16 -21 -37 -27 -45
-7 -8 -16 -30 -20 -47 -4 -21 -13 -33 -22 -33 -9 0 -13 -3 -10 -6 4 -4 0 -19
-8 -33 -7 -14 -26 -53 -40 -86 -15 -33 -35 -78 -46 -101 -10 -22 -19 -46 -19
-52 0 -7 -4 -12 -10 -12 -5 0 -12 -12 -16 -27 -8 -39 -36 -103 -44 -103 -4 0
-7 -7 -7 -15 0 -8 -12 -47 -28 -87 -15 -40 -32 -85 -37 -100 -6 -16 -13 -28
-17 -28 -4 0 -8 -17 -9 -37 -2 -21 -11 -50 -22 -65 -11 -15 -20 -35 -20 -45 0
-9 -12 -53 -27 -98 -35 -105 -36 -109 -37 -115 -1 -3 -7 -14 -12 -25 -6 -11
-14 -40 -17 -65 -3 -25 -13 -59 -22 -76 -8 -17 -18 -53 -20 -80 -3 -27 -13
-63 -21 -81 -8 -18 -18 -63 -23 -100 -5 -37 -16 -88 -25 -112 -9 -24 -16 -60
-16 -80 0 -20 -7 -61 -15 -91 -19 -69 -33 -159 -36 -230 -1 -30 -8 -71 -15
-91 -15 -45 -22 -109 -29 -263 -3 -75 -10 -123 -17 -127 -16 -10 -16 -878 0
-888 7 -4 14 -54 17 -126 6 -142 12 -193 30 -260 7 -27 14 -76 14 -107 2 -67
15 -141 35 -202 8 -23 15 -69 17 -101 1 -33 8 -72 16 -87 7 -15 18 -62 24
-105 6 -42 17 -89 25 -104 7 -15 16 -47 19 -71 3 -23 14 -69 25 -101 11 -31
20 -65 20 -76 0 -10 8 -33 17 -52 18 -36 45 -140 38 -148 -3 -2 2 -9 10 -15 9
-6 18 -28 20 -50 3 -21 14 -55 24 -75 11 -20 25 -57 31 -83 7 -27 16 -48 20
-48 4 0 11 -17 15 -37 4 -20 18 -57 31 -82 13 -25 24 -52 24 -58 0 -7 9 -30
20 -50 11 -21 20 -45 20 -54 0 -9 6 -22 14 -28 14 -12 31 -66 24 -74 -2 -2 3
-12 11 -21 17 -20 57 -114 73 -166 5 -19 15 -39 22 -45 7 -5 16 -23 20 -40 4
-16 17 -40 28 -52 12 -12 18 -29 15 -37 -4 -9 -3 -16 2 -16 9 0 35 -51 33 -62
-1 -5 2 -8 8 -8 5 0 10 -7 10 -16 0 -9 9 -29 21 -45 11 -16 22 -36 23 -43 1
-8 7 -20 14 -28 6 -8 9 -18 5 -21 -3 -4 -1 -7 5 -7 7 0 12 -5 12 -11 0 -6 9
-23 19 -37 10 -15 33 -65 51 -112 17 -47 40 -107 51 -134 10 -27 19 -55 19
-62 0 -8 9 -31 20 -51 11 -21 20 -45 20 -53 0 -8 7 -28 15 -43 24 -47 65 -215
75 -316 6 -53 15 -118 21 -146 33 -160 50 -229 60 -241 6 -8 9 -14 6 -14 -4 0
1 -19 9 -42 9 -24 17 -51 19 -61 2 -9 6 -21 9 -25 3 -5 6 -64 7 -133 2 -108 9
-172 33 -294 9 -43 14 -121 21 -285 13 -294 15 -337 25 -426 5 -50 12 -149 16
-220 3 -71 8 -136 10 -144 11 -33 41 -291 43 -364 1 -44 4 -83 7 -87 8 -13 44
-244 44 -283 0 -45 26 -92 69 -124 38 -28 73 -28 106 0 21 19 28 36 35 93 16
121 28 197 44 279 16 83 23 180 31 409 3 76 7 142 10 146 2 4 5 97 6 207 0
109 5 224 10 254 5 30 13 90 18 133 5 45 19 99 34 130 28 59 40 88 41 100 1 4
6 11 11 15 6 4 10 12 10 17 1 19 27 130 33 140 4 6 7 15 9 20 1 6 4 20 7 31
11 52 50 84 102 84 33 0 125 -29 145 -46 8 -8 20 -14 25 -14 30 0 107 -124
119 -195 22 -119 35 -214 40 -285 3 -47 8 -121 11 -165 3 -44 11 -111 19 -150
20 -103 24 -132 30 -210 3 -38 12 -101 20 -140 8 -38 22 -112 31 -162 9 -51
23 -98 30 -104 8 -6 14 -17 14 -24 0 -7 18 -20 40 -29 38 -15 43 -15 72 0 40
21 52 33 56 59 2 11 11 36 19 55 22 48 22 49 33 185 12 137 25 196 51 229 10
13 25 62 34 110 19 109 31 133 97 183 83 64 116 77 182 69 31 -4 56 -11 56
-16 0 -5 23 -19 50 -31 28 -12 50 -25 50 -29 0 -3 16 -12 35 -19 19 -7 35 -17
35 -22 0 -5 7 -9 15 -9 8 0 15 -5 15 -12 0 -6 3 -8 6 -5 7 7 64 -23 64 -33 0
-3 8 -6 18 -7 11 -1 39 -15 64 -32 55 -37 52 -22 67 -362 6 -127 17 -254 26
-291 8 -36 17 -94 21 -129 8 -94 52 -268 75 -300 37 -52 132 -47 156 8 26 63
33 104 38 213 3 63 9 151 15 195 15 125 22 197 25 235 1 19 6 72 10 118 l8 82
47 0 c32 0 55 -6 72 -19 13 -11 38 -23 54 -27 16 -4 49 -15 73 -26 24 -11 58
-22 75 -24 17 -2 36 -11 43 -20 6 -8 15 -15 20 -15 26 1 83 -13 83 -21 0 -5 5
-6 10 -3 6 4 21 0 33 -8 12 -7 39 -16 59 -20 20 -3 52 -13 70 -21 18 -9 57
-20 87 -26 30 -5 59 -14 65 -19 6 -5 34 -12 61 -16 76 -10 169 -52 196 -89 13
-17 22 -31 19 -31 -2 0 10 -14 26 -31 44 -47 74 -88 74 -101 0 -7 4 -13 9 -13
5 0 19 -20 31 -45 12 -25 26 -45 30 -45 5 0 11 -8 14 -17 3 -10 17 -30 30 -44
14 -15 23 -29 20 -31 -4 -5 15 -8 50 -9 21 0 56 28 56 46 0 14 196 231 216
239 15 6 267 -13 519 -39 178 -18 542 -20 696 -4 l108 11 46 -27 c26 -14 49
-33 52 -41 3 -8 8 -12 12 -10 7 5 82 -42 114 -72 16 -14 35 -47 81 -139 11
-21 64 -53 90 -53 16 0 66 38 64 48 -3 12 25 65 67 127 56 85 65 94 109 117
43 22 101 19 155 -8 45 -23 104 -85 123 -129 88 -214 90 -217 137 -213 22 1
43 11 53 23 18 23 58 134 58 161 0 9 6 30 14 47 8 18 20 51 26 74 6 23 16 48
23 55 6 7 13 21 15 31 7 44 89 142 155 187 20 14 44 39 52 56 18 39 39 56 62
53 10 -1 36 5 58 15 22 10 47 19 55 21 56 12 77 19 92 32 9 8 31 17 49 20 17
2 56 16 85 29 60 27 83 30 108 11 15 -11 19 -37 26 -178 5 -90 18 -227 29
-304 12 -76 19 -145 17 -152 -3 -7 -2 -13 2 -13 4 0 13 -19 20 -42 16 -60 46
-104 81 -123 39 -19 58 -9 94 52 22 36 31 71 48 206 12 89 23 180 26 202 2 22
12 112 23 200 10 88 22 198 26 245 8 100 17 130 40 130 10 0 32 11 50 25 18
14 42 25 53 25 11 0 23 5 27 11 3 6 25 19 48 30 63 30 212 114 234 131 6 6 12
7 12 4 0 -4 15 3 33 16 36 26 56 39 107 68 55 32 73 43 103 68 16 12 34 22 41
22 7 0 21 10 32 21 10 12 28 25 39 31 11 5 31 16 45 24 17 10 38 13 65 9 22
-3 56 -8 75 -10 84 -11 161 -28 166 -36 3 -5 9 -7 14 -4 5 3 28 -5 52 -17 23
-12 50 -23 58 -25 20 -2 80 -72 80 -92 0 -9 8 -30 19 -47 10 -17 22 -41 26
-55 4 -13 13 -31 20 -39 29 -34 57 -155 61 -270 3 -63 12 -142 21 -175 8 -33
17 -96 19 -140 4 -104 13 -180 26 -230 14 -57 15 -61 22 -150 13 -155 17 -188
32 -224 7 -20 15 -45 17 -57 2 -18 57 -95 57 -80 0 3 11 1 24 -4 18 -6 28 -4
42 9 81 79 101 170 105 496 1 88 6 201 10 250 4 50 13 206 18 348 6 141 17
321 25 400 8 78 19 189 25 247 12 125 18 170 32 230 6 25 13 61 16 80 2 19 14
71 25 115 11 44 23 92 26 107 2 16 8 28 12 28 4 0 7 6 7 13 -2 21 23 100 43
137 85 159 134 273 164 381 9 30 25 66 36 79 11 13 35 51 51 84 73 143 147
266 160 266 4 0 9 10 13 23 3 13 17 36 31 51 14 15 25 31 25 36 0 4 3 10 8 12
9 4 72 106 72 117 0 4 11 18 25 31 14 13 25 30 25 37 0 14 40 76 53 81 4 2 5
8 1 13 -3 5 -1 9 4 9 5 0 14 18 21 40 6 22 16 40 21 40 5 0 17 17 25 37 9 21
19 40 23 43 4 3 36 62 72 133 35 70 67 127 72 127 4 0 8 9 8 20 0 11 11 38 25
60 14 22 25 47 25 56 0 9 9 27 20 41 11 14 20 33 20 42 0 9 9 31 20 49 11 18
20 39 20 47 0 8 5 15 11 15 5 0 7 5 4 11 -4 5 0 18 8 27 8 9 18 28 21 42 4 14
15 45 26 70 23 57 32 81 36 99 1 8 7 17 12 20 5 3 12 23 16 44 4 21 15 52 26
70 10 18 21 46 24 62 2 17 14 54 25 83 12 29 21 60 21 70 0 10 8 34 19 54 10
20 21 58 25 84 3 26 11 53 16 59 6 7 16 41 22 76 6 35 17 76 24 90 7 15 18 55
24 90 13 74 13 73 27 119 6 19 14 60 17 92 3 31 12 74 21 95 8 21 19 86 24
144 5 59 14 115 19 126 13 24 21 88 26 206 2 54 9 94 17 104 21 24 21 1212 0
1237 -9 11 -16 51 -18 114 -2 53 -12 131 -23 172 -10 41 -21 112 -24 157 -4
45 -13 100 -21 123 -8 23 -17 66 -19 95 -3 29 -14 83 -25 120 -12 37 -21 78
-21 91 0 13 -9 47 -19 76 -11 29 -24 76 -30 103 -5 28 -16 68 -25 90 -8 22
-15 50 -16 63 0 12 -8 39 -19 60 -10 20 -21 53 -24 72 -3 19 -14 55 -24 80
-11 25 -23 60 -26 79 -4 19 -13 41 -19 49 -7 7 -13 23 -15 33 -2 11 -14 45
-27 77 -13 31 -27 72 -31 90 -3 17 -10 32 -15 32 -5 0 -11 15 -15 33 -4 17
-15 47 -26 65 -10 18 -21 44 -23 57 -3 14 -15 40 -28 58 -13 17 -22 33 -20 35
3 3 -39 98 -68 155 -11 22 -20 43 -20 48 0 6 -9 19 -20 31 -11 12 -20 28 -20
35 0 7 -14 39 -32 70 -17 32 -40 76 -51 98 -11 22 -28 52 -38 67 -11 14 -19
32 -20 40 0 7 -16 33 -34 58 -19 25 -41 59 -50 75 -8 17 -26 48 -40 70 -14 22
-28 47 -32 55 -4 8 -15 24 -26 35 -23 25 -50 75 -40 75 4 0 -3 7 -15 16 -12 8
-22 22 -22 30 0 8 -3 14 -7 14 -5 0 -21 21 -38 48 -16 26 -34 52 -40 59 -24
29 -33 42 -75 103 -51 76 -57 83 -90 115 -14 14 -22 25 -18 25 3 0 -6 13 -20
28 -15 15 -36 41 -47 57 -26 38 -65 86 -90 111 -11 12 -35 39 -53 60 -19 22
-62 70 -95 107 -34 38 -75 83 -90 100 -43 48 -227 236 -227 231 0 -2 -9 4 -19
13 -11 9 -18 20 -15 25 3 5 1 7 -4 6 -5 -2 -30 16 -55 40 -26 23 -43 42 -39
43 4 0 0 3 -9 7 -9 4 -70 53 -135 110 -159 138 -164 141 -164 135 0 -3 -13 8
-30 25 -16 18 -30 29 -30 27 0 -3 -27 17 -60 44 -32 27 -68 52 -80 56 -11 3
-20 10 -20 15 0 5 -14 17 -30 25 -18 9 -28 21 -24 27 4 7 3 8 -4 4 -7 -4 -22
3 -35 16 -13 13 -26 23 -30 23 -3 0 -15 8 -27 17 -11 10 -20 15 -20 11 0 -3
-10 2 -22 13 -13 11 -57 42 -98 69 -41 26 -87 56 -102 66 -15 11 -31 19 -36
19 -4 0 -17 8 -28 18 -10 9 -35 25 -54 35 -19 9 -48 26 -65 37 -16 11 -46 28
-65 37 -19 10 -36 21 -38 25 -2 4 -20 12 -40 19 -20 6 -45 20 -55 30 -10 11
-25 19 -33 19 -9 0 -28 8 -42 19 -15 10 -39 21 -53 24 -14 4 -38 18 -54 31
-16 14 -32 23 -37 20 -4 -3 -22 4 -38 16 -17 12 -41 23 -54 24 -13 2 -36 13
-51 25 -15 11 -34 21 -42 21 -8 0 -31 9 -51 19 -78 40 -153 71 -172 71 -10 0
-25 7 -34 15 -8 8 -30 18 -48 21 -18 4 -43 12 -55 20 -11 7 -43 19 -70 25 -26
7 -64 20 -83 31 -19 10 -43 18 -53 18 -10 0 -32 7 -50 17 -18 9 -57 22 -87 29
-30 7 -75 19 -100 28 -98 33 -177 55 -217 60 -23 3 -55 12 -72 20 -17 9 -59
19 -93 23 -35 3 -87 14 -117 25 -30 10 -68 18 -86 18 -17 0 -65 9 -106 19 -41
11 -119 24 -174 30 -55 6 -129 17 -165 25 -36 9 -112 16 -170 17 -61 1 -123 7
-148 16 -33 11 -117 14 -380 16 -185 1 -389 1 -452 -1z"/>
</g>
</svg>
