<svg height="464pt" viewBox="0 -40 464 464" width="464pt" xmlns="http://www.w3.org/2000/svg"><path d="m0 88v160c0 8.835938 7.164062 16 16 16h368v-176zm0 0" fill="#787680"/><path d="m384 16c0-8.835938-7.164062-16-16-16h-352c-8.835938 0-16 7.164062-16 16v24h384zm0 0" fill="#787680"/><path d="m96 120h352c8.835938 0 16 7.164062 16 16v232c0 8.835938-7.164062 16-16 16h-352c-8.835938 0-16-7.164062-16-16v-232c0-8.835938 7.164062-16 16-16zm0 0" fill="#898890"/><path d="m464 136v232c-.027344 8.824219-7.175781 15.972656-16 16h-352c-8.824219-.027344-15.972656-7.175781-16-16v-1.679688c86.558594-30.878906 253.921875-105.28125 360.480469-246.320312h7.519531c8.824219.027344 15.972656 7.175781 16 16zm0 0" fill="#83808c"/><path d="m336 160h80v56h-80zm0 0" fill="#ffc477"/><path d="m120 304h296v32h-296zm0 0" fill="#ff9478"/><path d="m0 40h384v48h-384zm0 0" fill="#57565c"/><g fill="#ffeb99"><path d="m112 160h32v16h-32zm0 0"/><path d="m160 160h128v16h-128zm0 0"/><path d="m112 192h176v16h-176zm0 0"/></g></svg>